<?xml version="1.0" standalone="no"?>
<!DOCTYPE svg PUBLIC "-//W3C//DTD SVG 20010904//EN"
 "http://www.w3.org/TR/2001/REC-SVG-20010904/DTD/svg10.dtd">
<svg version="1.0" xmlns="http://www.w3.org/2000/svg"
 width="440.000000pt" height="188.000000pt" viewBox="0 0 440.000000 188.000000"
 preserveAspectRatio="xMidYMid meet">
<metadata>
Created by potrace 1.16, written by Peter Selinger 2001-2019
</metadata>
<g transform="translate(0.000000,188.000000) scale(0.100000,-0.100000)"
fill="#000000" stroke="none">
<path d="M1162 1423 l3 -238 40 0 40 0 5 175 5 175 22 -80 c12 -44 33 -123 45
-175 l23 -95 39 -3 c21 -2 42 0 47 5 4 4 22 69 39 143 55 240 54 240 60 35 l5
-180 40 0 40 0 3 238 2 238 -72 -3 -73 -3 -38 -150 c-21 -82 -41 -152 -44
-155 -8 -7 -12 6 -52 165 l-36 140 -73 3 -72 3 2 -238z"/>
<path d="M1718 1478 c-1 -101 -3 -208 -3 -238 l0 -55 43 -3 42 -3 0 59 c0 49
4 62 24 81 l23 22 44 -78 c43 -77 45 -78 87 -81 23 -2 42 1 42 7 0 5 -25 52
-55 105 -30 52 -55 100 -55 107 0 7 24 37 53 68 l52 56 -50 3 c-49 3 -51 3
-100 -52 -27 -31 -53 -56 -57 -56 -5 0 -8 54 -8 120 l0 120 -40 0 -40 0 -2
-182z"/>
<path d="M2050 1643 c0 -10 24 -117 53 -238 l54 -220 46 -3 c57 -4 53 -11 103
188 37 148 48 176 57 144 3 -11 25 -90 48 -176 l42 -158 48 0 c37 0 49 4 53
18 3 9 21 87 40 172 20 85 42 180 51 210 21 79 21 80 -29 80 l-45 0 -11 -57
c-24 -116 -59 -265 -63 -269 -2 -2 -18 53 -35 123 -55 223 -44 203 -107 203
-61 0 -56 8 -95 -150 -36 -146 -41 -160 -49 -160 -5 0 -16 39 -25 88 -10 48
-24 117 -33 155 l-15 67 -44 0 c-35 0 -44 -3 -44 -17z"/>
<path d="M2763 1529 c-29 -8 -83 -60 -83 -79 0 -4 16 -11 36 -15 29 -5 40 -2
56 14 21 23 77 28 96 9 7 -7 12 -22 12 -33 0 -18 -9 -24 -57 -34 -101 -21
-123 -31 -138 -61 -34 -66 -5 -131 67 -150 36 -10 46 -9 89 13 46 22 49 23 55
5 4 -13 15 -18 42 -18 l38 0 -4 138 c-2 75 -9 148 -15 162 -24 50 -112 73
-194 49z"/>
<path d="M3030 1522 c0 -10 66 -198 99 -280 12 -29 21 -60 21 -68 0 -24 -47
-64 -75 -64 -24 0 -26 -3 -23 -32 3 -28 7 -33 33 -36 56 -7 103 15 125 58 28
56 158 419 152 425 -3 3 -22 5 -43 5 l-37 0 -38 -112 c-20 -62 -39 -117 -42
-122 -3 -5 -24 44 -47 110 l-43 119 -41 3 c-22 2 -41 -1 -41 -6z"/>
<path d="M415 977 c-3 -6 -4 -172 -3 -367 l3 -355 228 -3 227 -2 0 60 0 60
-170 0 -170 0 0 105 0 105 155 0 155 0 0 60 0 60 -155 0 -155 0 0 85 0 85 165
0 165 0 0 60 0 60 -220 0 c-168 0 -222 -3 -225 -13z"/>
<path d="M1270 867 c0 -68 -2 -126 -5 -129 -3 -3 -19 7 -36 23 -82 76 -203 33
-250 -89 -17 -44 -22 -78 -22 -152 1 -104 16 -161 59 -217 62 -81 172 -85 233
-7 16 20 22 23 26 12 3 -8 5 -19 4 -24 -5 -28 3 -34 51 -34 l50 0 0 370 0 370
-55 0 -55 0 0 -123z m-43 -202 c46 -52 54 -206 13 -273 -42 -68 -114 -61 -150
14 -19 38 -21 58 -18 133 3 79 6 93 28 116 46 50 87 53 127 10z"/>
<path d="M2020 621 l0 -371 178 0 c164 0 181 2 222 23 63 31 95 96 95 192 0
80 -21 126 -73 161 l-31 21 26 24 c57 53 70 152 31 229 -42 81 -54 85 -264 88
l-184 3 0 -370z m326 234 c29 -19 37 -68 20 -110 -17 -41 -58 -55 -158 -55
l-68 0 0 90 0 90 93 0 c65 0 99 -4 113 -15z m12 -301 c50 -33 54 -121 7 -161
-23 -21 -37 -23 -126 -23 l-99 0 0 105 0 105 98 -6 c61 -3 105 -10 120 -20z"/>
<path d="M2776 775 c-14 -13 -26 -29 -26 -35 0 -23 -19 -8 -22 18 -3 25 -6 27
-52 27 l-49 0 0 -265 1 -265 51 -3 c28 -2 52 -2 52 0 1 2 5 84 8 183 5 152 9
185 25 209 16 26 22 28 63 23 49 -5 54 1 68 75 6 30 3 36 -20 46 -40 18 -69
14 -99 -13z"/>
<path d="M3059 791 c-52 -17 -71 -34 -95 -84 -26 -57 -24 -60 37 -72 31 -6 38
-3 53 20 23 34 56 46 97 35 39 -11 49 -25 49 -66 0 -31 -1 -32 -82 -54 -120
-32 -144 -45 -168 -94 -25 -54 -26 -116 0 -166 40 -78 139 -96 216 -40 l43 31
7 -26 c6 -23 11 -25 61 -25 53 0 55 1 48 23 -4 12 -11 115 -14 229 -5 188 -8
209 -27 235 -11 15 -34 35 -50 42 -34 17 -137 24 -175 12z m141 -331 c0 -28
-7 -64 -15 -80 -18 -35 -74 -57 -104 -40 -43 23 -54 85 -21 115 16 15 107 52
133 54 4 1 7 -22 7 -49z"/>
<path d="M3853 781 c-23 -11 -48 -29 -55 -40 -18 -29 -26 -26 -30 12 -3 31 -5
32 -50 35 l-48 3 0 -271 0 -271 53 3 52 3 5 185 c4 157 8 190 23 213 23 36 64
52 95 38 43 -20 52 -65 52 -261 l0 -180 56 0 55 0 -3 223 c-2 173 -6 228 -18
251 -35 67 -114 91 -187 57z"/>
<path d="M1500 583 c0 -118 5 -225 11 -247 29 -106 154 -133 236 -51 36 36 43
35 43 -7 0 -27 2 -28 50 -28 l50 0 0 271 0 270 -52 -3 -53 -3 -5 -185 c-5
-192 -10 -215 -52 -244 -30 -21 -61 -20 -89 3 -23 19 -24 24 -29 223 l-5 203
-52 3 -53 3 0 -208z"/>
<path d="M3437 783 c-4 -3 -7 -125 -7 -270 l0 -263 55 0 55 0 0 270 0 270 -48
0 c-27 0 -52 -3 -55 -7z"/>
</g>
</svg>
